<?xml version="1.0" encoding="utf-8"?>
<!-- Generator: Adobe Illustrator 27.2.0, SVG Export Plug-In . SVG Version: 6.00 Build 0)  -->
<svg version="1.1" id="Layer_1" xmlns="http://www.w3.org/2000/svg" xmlns:xlink="http://www.w3.org/1999/xlink" x="0px" y="0px"
	 viewBox="0 0 505 316" style="enable-background:new 0 0 505 316;" xml:space="preserve">
<style type="text/css">
	.st0{fill:#66CB66;}
	.st1{fill:#003E6D;}
	.st2{fill:#FF9833;}
	.st3{fill:#FFFFFF;}
	.st4{clip-path:url(#SVGID_00000179624946853611399730000004402063181781046149_);}
</style>
<g>
	<path class="st0" d="M240.1,228.5h18.1v4.5h-13.1v7.4h12.4v4.5h-12.4v11.6h-5V228.5z"/>
	<path class="st0" d="M270.6,228.5h5v28h-5V228.5z"/>
	<path class="st0" d="M289.7,228.5h6.6l13.6,20.8l0,0v-20.8h5v28h-6.3L294.7,235l0,0v21.5h-5L289.7,228.5L289.7,228.5z"/>
	<path class="st0" d="M329.1,228.5h11.1c1.8,0,3.6,0.3,5.3,0.9c1.7,0.6,3.2,1.4,4.6,2.6c1.3,1.2,2.4,2.6,3.2,4.4
		c0.8,1.8,1.2,3.8,1.2,6.2s-0.5,4.5-1.4,6.2c-0.9,1.8-2.1,3.2-3.5,4.4c-1.4,1.1-3,2-4.8,2.6s-3.5,0.9-5.2,0.9h-10.5v-28L329.1,228.5
		z M337.8,252c1.6,0,3-0.2,4.4-0.5c1.4-0.4,2.6-0.9,3.6-1.7s1.8-1.7,2.4-2.9s0.9-2.7,0.9-4.4s-0.3-3.1-0.8-4.4
		c-0.5-1.2-1.3-2.2-2.2-3c-0.9-0.8-2-1.3-3.3-1.7s-2.7-0.5-4.2-0.5H334v19h3.7L337.8,252z"/>
	<path class="st0" d="M367.1,228.5h18.6v4.5h-13.6v6.9H385v4.5h-12.9v7.6h14.3v4.5h-19.3V228.5z"/>
	<path class="st0" d="M399.2,228.5h9.7c1.3,0,2.6,0.1,3.9,0.4c1.3,0.3,2.4,0.7,3.3,1.3c1,0.6,1.8,1.4,2.3,2.5c0.6,1,0.9,2.3,0.9,3.9
		s-0.6,3.7-1.7,5.1c-1.1,1.4-2.7,2.2-4.8,2.5l7.4,12.4h-6l-6.5-11.9h-3.6v11.9h-5v-28L399.2,228.5z M408.1,240.4c0.7,0,1.4,0,2.1,0
		s1.4-0.2,2-0.5s1.1-0.6,1.4-1.1c0.4-0.5,0.6-1.2,0.6-2.2s-0.2-1.5-0.5-2s-0.8-0.9-1.3-1.1s-1.2-0.4-1.8-0.5c-0.7,0-1.3-0.1-2-0.1
		h-4.3v7.6h3.9L408.1,240.4z"/>
</g>
<g>
	<path class="st1" d="M151.9,128.9c0.3-0.5,1.1-1.1,2.5-1.6c0.9-0.3,1.9-0.6,3.1-0.8c1.2-0.2,2.2-0.2,3.1-0.2c0.9,0,1.6,0.4,2.1,0.8
		c0.5,0.5,0.6,1.2,0.3,2.1c-2.6,7-4.4,14.5-5.5,22.3c-1.1,7.9-1.5,15.8-1.3,23.9c1.9,0,3.5,0,4.9,0.4c1.4,0.3,2.4,0.9,3.1,1.6
		c0.7,0.8,1.1,1.6,1.1,2.2c0,0.7,0,1.2-0.4,1.6c-0.3,0.4-0.8,0.5-1.4,0.5c-0.6,0-1.2-0.2-1.8-0.7c-0.9-0.6-2.7-0.8-5.3-0.5
		c0.4,8.2,1.4,16.1,2.9,23.8s3.5,14.8,5.8,21.4c0.8,2.2,1.7,4.4,2.6,6.5c0.9,2.1,1.9,4.1,2.8,6c0.4,0.7,0.4,1.3,0,1.8
		c-0.3,0.5-0.9,0.8-1.8,0.8c-0.8,0-1.8-0.2-3-0.8s-2.3-1.5-3.6-2.9c-1.5-1.6-2.9-3.7-4.2-6.3c-1.4-2.6-2.6-5.6-3.8-8.9
		c-1.9-5.4-3.6-11.4-5-18.2s-2.4-13.8-3.1-21.3c-2.1,0.6-4.2,1.3-6.5,2.1c-1.7,0.6-3.5,1.3-5.3,2.1s-3.6,1.7-5.5,2.6
		c0.1,6.3-0.2,12.2-1.1,17.8c-0.8,5.6-2,10.8-3.4,15.7c-1.4,4.8-3.1,9.2-5,13.2s-3.8,7.4-5.7,10.4c-2,3-3.9,5.4-5.7,7.3
		c-1.9,1.9-3.5,3.2-4.9,3.9c-1.7,0.8-3.3,1.2-5,1.2s-3.2-0.3-4.6-1s-2.7-1.6-3.8-2.9c-1.1-1.3-2-2.8-2.6-4.5
		c-2.2-6.6-2.9-12.9-2-18.8c0.9-6,2.9-11.5,6-16.7s7-9.9,11.6-14.2c4.7-4.3,9.7-8.1,15-11.4c-0.2-3.1-0.4-6-0.7-8.9
		c-0.3-2.8-0.7-5.5-1-7.9c-0.4-2.5-0.8-4.7-1.2-6.7c-0.4-2-0.8-3.8-1.1-5.3l-0.5-2.3c-0.1-0.7-0.3-1.4-0.5-2s-0.3-1.2-0.5-1.7
		c-0.7-1.9-1.6-3.1-2.9-3.6c-1.2-0.5-3.2-0.3-5.9,0.5c-1.2,0.4-2.7,1.2-4.5,2.6c-1.9,1.4-3.8,3.2-5.8,5.4s-3.9,4.8-5.8,7.7
		c-1.8,3-3.3,6.2-4.4,9.8s-1.6,7.5-1.6,11.6c0,4.2,0.8,8.5,2.4,13c0.7,1.9,1.6,3.9,2.6,5.9c0.2,0.4-0.2,0.7-1.2,0.8s-2.3,0-3.7-0.4
		c-1.5-0.4-3-1-4.6-1.9s-2.9-2.1-3.9-3.7c-0.8-1.4-1.6-3-2.2-4.7c-1.1-3-1.6-6.1-1.7-9.5c0-3.4,0.3-6.7,1.2-10.1
		c0.8-3.4,2.1-6.7,3.7-10s3.6-6.4,5.9-9.2s5-5.4,7.9-7.6c2.9-2.2,6.1-4,9.6-5.4c3-1.1,5.7-1.9,8.3-2.2c2.6-0.4,5-0.3,7.1,0.3
		c2.2,0.6,4.1,1.7,5.8,3.5c1.7,1.7,3.1,4.1,4.3,7.2c1.6,5.1,2.9,10,3.8,14.8s1.5,9.5,1.9,14.1c1.7-0.8,3.4-1.6,5.1-2.3
		c1.7-0.7,3.4-1.4,5-2c1.2-0.4,2.4-0.8,3.6-1.2c1.2-0.4,2.3-0.7,3.5-1c-0.2-4.3-0.3-8.7-0.2-13.1c0-4.4,0.3-8.6,0.8-12.7
		c0.5-4.1,1.2-8.1,2.1-11.9c0.9-3.8,2.1-7.3,3.4-10.6l0,0L151.9,128.9z M100.1,252.8c3.6-4.1,6.5-8.5,8.9-13.1
		c2.4-4.7,4.2-9.5,5.5-14.4s2.3-9.8,2.8-14.8c0.5-4.9,0.8-9.8,0.7-14.4c-4,2.8-7.8,6.1-11.3,9.7c-3.5,3.6-6.4,7.7-8.8,12.1
		c-2.3,4.4-3.9,9.2-4.8,14.4c-0.8,5.2-0.6,10.8,0.7,16.7c0.1,0.4,0.3,0.9,0.6,1.6c0.3,0.7,0.6,1.3,1,1.9c0.4,0.6,0.8,1.1,1.3,1.4
		c0.5,0.3,1.1,0.4,1.7,0.2c0.5-0.2,1-0.6,1.6-1.3L100.1,252.8z"/>
	<path class="st1" d="M167,217.6c-0.5-1.2-0.8-2.9-1.1-5s-0.4-4.4-0.3-7s0.5-5.2,1-8c0.6-2.8,1.5-5.5,2.7-8.1c0-3.1,0.9-5.9,2.7-8.5
		s4.7-4.4,8.6-5.4c1.6-0.4,3.1-0.5,4.3-0.2s2.3,1,3.3,1.8c0.9,0.9,1.7,1.9,2.4,3.2c0.6,1.3,1.1,2.7,1.5,4.3s0.7,3.3,0.8,5.1
		s0.2,3.5,0,5.2c1.4-1.3,2.6-2.8,3.7-4.4c1.1-1.6,2.1-3.2,3-4.8s1.7-3.2,2.3-4.6c0.7-1.5,1.2-2.7,1.6-3.8l0,0l1.1-2.4
		c0.2-0.4,0.5-0.6,0.9-0.7c0.4-0.1,0.8-0.2,1.3-0.1c0.4,0,0.9,0.1,1.3,0.3c0.4,0.2,0.7,0.4,0.9,0.7c0,0.2,0,0.8-0.4,1.8
		c-0.3,1-0.8,2.4-1.4,4c-0.6,1.6-1.4,3.4-2.4,5.3c-1,1.9-2.1,3.9-3.4,5.8c-1.3,1.9-2.7,3.7-4.3,5.4s-3.3,3-5.1,4.1
		c-0.6,2.2-1.3,4.5-2,6.9s-1.7,4.6-2.8,6.7c-1.2,2.1-2.6,3.9-4.3,5.4s-3.8,2.6-6.3,3.1c-2.2,0.4-4.1,0-5.8-1c-1.7-1.1-3-2.7-4-4.9
		L167,217.6z M184,203.9c-1.9,0.1-3.5,0-5-0.5c-1.4-0.5-2.7-1.1-3.7-1.9c-0.6,3.2-1.1,6.2-1.3,9.1c-0.2,2.8,0,5.1,0.4,6.8
		c0.2,0.8,0.5,1.4,0.7,1.8c0.2,0.4,0.5,0.5,0.9,0.3c1-0.4,1.9-1.1,2.7-2.1s1.6-2.2,2.2-3.6c0.7-1.4,1.3-2.9,1.8-4.6
		c0.5-1.7,1-3.4,1.3-5.2L184,203.9z M176.6,196.4c1.1,1.2,2.4,2.1,3.9,2.5s2.9,0.6,4.3,0.5c0.4-2.9,0.6-5.6,0.7-8.1
		c0-2.5,0-4.7,0-6.4c-0.2-1.1-0.5-2-0.9-2.7s-0.8-1.3-1.2-1.7s-0.8-0.7-1.1-0.8s-0.5-0.2-0.7-0.2c-2,0.6-3.5,1.6-4.5,2.9
		c-1.1,1.3-1.8,2.8-2.2,4.3c0.5-0.7,1.3-1.4,2.2-2.2s1.8-1.4,2.6-1.9s1.5-0.7,2.1-0.8c0.6,0,0.7,0.3,0.5,1c-1,1.2-2,3-3,5.4
		S177.4,193.3,176.6,196.4L176.6,196.4z"/>
	<path class="st1" d="M249.8,203.6c0.9,0,2.1-1,3.5-3s2.9-4.5,4.5-7.7c1.6-3.2,3.1-6.8,4.7-10.8s3-8.2,4.2-12.3
		c0.3-0.8,0.8-1.4,1.4-1.6c0.6-0.3,1.2-0.3,1.8-0.1s1,0.5,1.4,1c0.3,0.5,0.4,1.1,0.1,1.8l0,0c-0.8,2.3-1.7,4.9-2.7,7.8
		c-1,2.8-2.1,5.7-3.2,8.6c-1.2,2.9-2.4,5.7-3.8,8.4s-2.9,5.1-4.4,7.3c-1.5,2.1-3.2,3.9-4.9,5.2c-1.8,1.3-3.6,2-5.5,2.2
		c-2-0.1-3.6-1-4.7-2.6c-1.1-1.6-1.8-3.7-2.1-6.2c-0.3-2.1-0.4-4.4-0.3-7c0.1-2.6,0.4-5.2,0.9-7.9s1-5.3,1.6-7.9
		c0.6-2.6,1.3-4.9,2.1-6.9c0-0.2,0-0.3-0.1-0.2c-0.2,0.1-0.3,0.2-0.4,0.3c-0.6,0.6-1.3,1.5-2.1,2.7c-0.9,1.2-1.8,2.7-2.9,4.3
		c-1.1,1.6-2.1,3.4-3.2,5.4c-1.1,1.9-2.1,3.9-3.1,5.8c-1,1.9-1.8,3.8-2.6,5.7c-0.7,1.8-1.2,3.5-1.5,4.9c-0.1,1.1-0.2,2.2-0.2,3.3
		s0,2.3,0,3.4c0,0.8,0,1.5,0.1,2c0,0.5,0.2,1,0.3,1.4c0.2,0.8,0.2,1.4,0.2,1.7s-0.5,0.6-1.4,0.7c-1,0.2-1.9,0-2.6-0.3
		c-0.7-0.4-1.3-0.9-1.8-1.5s-0.8-1.2-1.1-1.8c-0.2-0.6-0.4-1.1-0.5-1.4c-0.1-0.6-0.3-1.1-0.4-1.7c-0.1-0.6-0.2-1.2-0.3-1.8
		c-0.6-4.1-0.7-8.1-0.4-12.2c0.4-4,1-8,2-12c0.3-1.1,0.6-2.1,0.9-3c0.3-1,0.6-1.9,0.9-2.8c0-0.3,0-0.4-0.2-0.3
		c-0.2,0.1-0.3,0.2-0.4,0.3c-0.5,0.5-1.1,1.4-2.1,2.8c-0.9,1.4-1.9,3-3,4.9s-2.3,3.9-3.5,6.1c-1.2,2.2-2.3,4.4-3.3,6.5
		s-1.9,4.2-2.7,6.1c-0.8,1.9-1.2,3.6-1.5,4.9c0,0.8,0,1.5-0.1,2.3c0,0.7,0,1.5,0,2.2s0,1.4,0.1,1.9s0.2,1,0.3,1.4
		c0.2,0.7,0.3,1.2,0.2,1.6c0,0.4-0.5,0.7-1.4,0.8s-1.7,0-2.4-0.3s-1.3-0.7-1.7-1.3c-0.5-0.5-0.9-1.1-1.2-1.7
		c-0.3-0.6-0.5-1.1-0.6-1.5c0,0,0-0.1,0-0.2c0,0,0-0.1,0-0.2c-0.1-0.6-0.2-1.1-0.3-1.7s-0.2-1.1-0.2-1.7c-0.4-3-0.6-6-0.5-9
		c0-3,0.4-6,0.9-8.9s1.1-5.8,2-8.6c0.8-2.8,1.7-5.6,2.7-8.3c0.2-0.6,0.7-1.1,1.4-1.5s1.5-0.8,2.4-1.2c0.9-0.3,1.8-0.6,2.7-0.8
		s1.7-0.4,2.4-0.5c1.1-0.2,1.7,0,2,0.5c0.2,0.5,0.2,1.1,0,1.7c-0.3,1.1-0.6,2.2-1,3.3c-0.3,1.1-0.7,2.2-1,3.3l0,0
		c-0.4,1.2-0.8,2.5-1.2,3.8s-0.8,2.6-1.2,3.9c1.2-2.2,2.4-4.4,3.7-6.5s2.6-3.9,3.8-5.6c1.3-1.7,2.5-3,3.6-4c1.2-1,2.2-1.6,3.1-1.7
		c0.9-0.1,1.8-0.1,2.7,0s1.7,0.4,2.4,0.8c0.7,0.4,1.3,0.9,1.8,1.6c0.5,0.7,0.8,1.6,1,2.7c0.2,1.1,0,2.5-0.3,4.4l-0.6,2.2
		c1.2-1.9,2.3-3.8,3.5-5.5s2.4-3.3,3.5-4.6c1.2-1.3,2.3-2.4,3.3-3.2s2-1.3,2.9-1.3c1.9-0.2,3.6,0.1,5.2,0.8c1.5,0.7,2.5,2.2,2.8,4.3
		c0,0.6,0.1,1.2,0,1.9c0,0.7-0.2,1.5-0.4,2.4l-1.6,6.9c-0.5,2.3-1,4.5-1.5,6.7c-0.5,2.1-0.9,4.1-1.2,6c-0.3,1.8-0.6,3.5-0.8,4.9
		s-0.2,2.6,0,3.4c0.1,1,0.5,1.4,1.2,1.3L249.8,203.6z"/>
	<path class="st1" d="M285.2,161.7c1.3-0.1,2.3,0,3.2,0.5c0.9,0.5,1.6,1.1,2.2,1.8c0.5,0.7,0.9,1.5,1.2,2.2c0.3,0.7,0.5,1.3,0.5,1.6
		c0,0.4,0.1,0.7,0,1.1c0,0.3,0,0.7,0,1c-0.2,2-0.9,4.2-2.1,6.6c-1.2,2.4-2.8,4.6-4.6,6.7c-1.8,2.1-3.9,4-6.1,5.5
		c-2.2,1.6-4.4,2.5-6.5,2.9c-0.6,0.1-1,0.1-1.4,0c-0.4-0.2-0.6-0.4-0.9-0.7c-0.2,1.7-0.3,3.4-0.2,5.1c0,0.5,0,0.9,0.1,1.4
		c0,0.5,0.1,0.9,0.2,1.4c0,0.3,0.1,0.7,0.3,1.1c0.2,0.4,0.3,0.8,0.6,1.2c0.2,0.4,0.5,0.7,0.8,1s0.7,0.4,1,0.4c1.5,0,3.3-0.6,5.3-2.1
		s4-3.4,6-5.7s4.1-4.9,6.1-7.6c2-2.8,3.8-5.4,5.4-8c1.6-2.5,3-4.8,4-6.7c1.1-1.9,1.7-3.2,2-3.7c0.1-0.3,0.4-0.5,0.8-0.4
		s0.8,0.2,1.2,0.5c0.4,0.2,0.7,0.5,1,0.8s0.4,0.5,0.3,0.7l0,0c0,0.1-0.5,1.1-1.5,3c-0.9,1.9-2.2,4.3-3.9,7.1
		c-1.6,2.8-3.6,5.9-5.8,9.1c-2.2,3.2-4.6,6.2-7.2,9c-2.6,2.7-5.3,5-8.1,6.8c-2.8,1.8-5.6,2.7-8.5,2.6c-0.7,0-1.4,0-2.3-0.2
		c-0.8-0.1-1.6-0.5-2.5-1.1c-0.8-0.6-1.6-1.4-2.3-2.4c-0.7-1.1-1.4-2.5-1.9-4.3c-0.3-1.2-0.5-2.5-0.6-3.8c-0.1-1.9,0-4.1,0.4-6.5
		s1-4.8,1.8-7.3c0.8-2.4,1.9-4.8,3.2-7.2c1.3-2.4,2.9-4.5,4.7-6.4c1.8-1.9,3.8-3.4,6.1-4.7c2.3-1.2,4.8-1.9,7.6-2.1L285.2,161.7z
		 M286.1,166.1c-0.8,0-2,0.8-3.4,2s-2.9,2.8-4.3,4.8c-1.5,2-2.9,4.3-4.2,7c-1.3,2.6-2.3,5.4-3,8.4c2-0.5,3.9-1.5,5.6-3
		s3.2-3.1,4.5-5s2.4-3.8,3.3-5.8s1.5-3.8,1.8-5.4v-0.3c0-0.4,0-1,0-1.7s-0.1-1.1-0.3-1.1V166.1z"/>
</g>
<g>
	<rect x="220.1" y="107.9" width="13" height="13"/>
	<rect x="236.8" y="107.9" width="13" height="13"/>
	<rect x="220.1" y="124.6" width="13" height="13"/>
	<rect x="236.8" y="124.6" width="13" height="13"/>
	<path class="st2" d="M328.5,95.2h-1.2c0,0.1-29.7,32.6-29.7,32.6l22.3-33.4l-76.1-27.9l56.6,78.9l21.4-28.4h4c0-1.1,0-2.1,0-3.2
		c0-6.5,1-12.8,2.8-18.7L328.5,95.2z"/>
	<path d="M329.9,91.3c0.3-0.9,0.7-1.7,1-2.5l-4,0.5l-93.8-32.5l-62.7,91.4h6.5l57.5-83.5l0.7,0.9l62.5,86.4l39.9-1.3
		c-0.4-0.6-0.8-1.1-1.2-1.7l-36-3.5l0,0h0.1l-0.6-0.7l-56-78.1l0-0.1l76.1,27.9l-22.3,33.4l29.7-32.5h1.2c0.4-1.5,0.9-2.8,1.4-4
		V91.3z M300.3,145.5L300.3,145.5L300.3,145.5L300.3,145.5z"/>
</g>
<g id="ywX71d">
	<circle class="st3" cx="387.8" cy="114.4" r="47.5"/>
	<g>
		<path d="M435.8,113.7c0,36.2-38.7,59.6-70.8,42.9c-1.3-0.7-2-0.6-3,0.5c-14.5,16.5-29,33-43.5,49.4c-2.9,3.3-7,4.3-10.8,2.9
			c-6.4-2.4-8.4-10.5-3.8-15.8c4.2-4.9,8.5-9.7,12.8-14.6c10.3-11.7,20.6-23.4,30.9-35c0.8-0.9,0.9-1.4,0.2-2.6
			c-20.6-29.6-3.3-69.9,32.3-75.6c26.5-4.2,51.9,14.9,55.2,41.6c0.3,2.1,0.4,4.1,0.5,6.2L435.8,113.7z M387.5,70.6
			c-23.8,0-43.2,19.2-43.2,43s19.1,43.3,42.7,43.3c24.1,0,43.5-19.1,43.5-42.8C430.5,90,411.4,70.7,387.5,70.6z"/>
		<path d="M423.9,117.7c-0.4,19.8-20.4,38.5-44.6,32.9c9.6-1.8,19-4.2,27-10.1c8-5.9,13.4-13.8,17.6-22.7V117.7z"/>
		<path d="M349.2,112.1c0.2-25.6,23.3-39.9,42.3-35.9C370.4,79.9,356.7,92.3,349.2,112.1z"/>
	</g>
</g>
<g>
	<defs>
		<circle id="SVGID_1_" cx="387.1" cy="113.9" r="38.8"/>
	</defs>
	<clipPath id="SVGID_00000124143563531999978940000004231999036981653889_">
		<use xlink:href="#SVGID_1_"  style="overflow:visible;"/>
	</clipPath>
	<g style="clip-path:url(#SVGID_00000124143563531999978940000004231999036981653889_);">
		<g>
			<g>
				<rect x="220.1" y="107.9" width="13" height="13"/>
				<rect x="236.8" y="107.9" width="13" height="13"/>
				<rect x="220.1" y="124.6" width="13" height="13"/>
				<rect x="236.8" y="124.6" width="13" height="13"/>
			</g>
			<g>
				<rect x="380.7" y="109.7" width="7.3" height="7.3"/>
				<rect x="390.1" y="109.7" width="7.3" height="7.3"/>
				<rect x="380.7" y="119.1" width="7.3" height="7.3"/>
				<rect x="390.1" y="119.1" width="7.3" height="7.3"/>
			</g>
			<polygon class="st2" points="240.5,62.4 324.1,92.1 384.4,83.9 378.9,100.4 350.4,100.4 339.7,117.1 321.8,117.1 300.4,145.5 
				234.5,64.7 			"/>
			<polygon points="170.4,148.3 233.1,56.8 326.9,89.3 390.9,80.9 416,119.9 409.5,119.9 388.6,89.8 358.9,130.6 328.3,131.5 
				352.4,127.8 382.1,88.8 327.3,95.3 297.6,127.8 319.9,94.4 243.8,66.6 300.4,145.5 349.7,150.2 297.6,152 234.5,64.7 
				176.9,148.3 			"/>
		</g>
	</g>
</g>
</svg>
